<?xml version="1.0" encoding="iso-8859-1"?>
<!-- Generator: Adobe Illustrator 19.0.0, SVG Export Plug-In . SVG Version: 6.00 Build 0)  -->
<svg version="1.1" id="Capa_1" xmlns="http://www.w3.org/2000/svg" xmlns:xlink="http://www.w3.org/1999/xlink" x="0px" y="0px"
	 viewBox="0 0 512 512" style="enable-background:new 0 0 512 512;" xml:space="preserve">
<g>
	<g>
		<circle cx="151" cy="211" r="30"/>
	</g>
</g>
<g>
	<g>
		<circle cx="361" cy="211" r="30"/>
	</g>
</g>
<g>
	<g>
		<path d="M466,151c-24.814,0-45,20.186-45,45v30v15c0,16.538-13.462,30-30,30c-2.631,0-5.118-0.628-7.59-1.278
			c0.656-1.196,0.945-2.538,1.523-3.77C377.589,269.163,369.516,271,361,271c-33.091,0-60-26.909-60-60s26.909-60,60-60
			c10.693,0,20.596,3.043,29.299,7.963c0.128-2.679,0.701-5.259,0.701-7.963C391,68.295,330.443,0,256,0S121,68.295,121,151
			c0,2.704,0.573,5.284,0.701,7.963C130.404,154.043,140.307,151,151,151c33.091,0,60,26.909,60,60s-26.909,60-60,60
			c-8.518,0-16.593-1.838-23.937-5.05c0.579,1.234,0.868,2.576,1.523,3.774c-2.47,0.648-4.957,1.276-7.586,1.276
			c-16.538,0-30-13.462-30-30v-45c0-24.814-20.186-45-45-45c-24.814,0-46,20.186-46,45c0,8.291,6.709,15,15,15s15-6.709,15-15
			c0-8.276,7.724-15,16-15s15,6.724,15,15v45c0,33.091,26.909,60,60,60c7.224,0,14.332-1.404,21.031-3.913
			c5.834,14.262,8.969,27.557,8.969,40.432V376c0,8.276-6.724,15-15,15s-15-6.724-15-15c0-8.291-6.709-15-15-15s-15,6.709-15,15
			c0,24.814,20.186,45,45,45c24.814,0,45-20.186,45-45v-15h30v106c0,8.276-6.724,15-15,15s-15-6.724-15-15c0-8.291-6.709-15-15-15
			s-15,6.709-15,15c0,24.814,20.186,45,45,45c24.814,0,45-20.186,45-45V361h30v106c0,24.814,20.186,45,45,45
			c24.814,0,45-20.186,45-45c0-8.291-6.709-15-15-15c-8.291,0-15,6.709-15,15c0,8.276-6.724,15-15,15s-15-6.724-15-15V361h30v15
			c0,24.814,20.186,45,45,45c24.814,0,45-20.186,45-45v-30c0-8.291-6.709-15-15-15c-8.291,0-15,6.709-15,15v30
			c0,8.276-6.724,15-15,15s-15-6.724-15-15v-38.481c0-12.874,3.133-26.168,8.967-40.433C376.668,299.594,383.776,301,391,301
			c33.091,0,60-26.909,60-60v-15v-30c0-8.276,6.724-15,15-15s16,6.724,16,15c0,8.291,6.709,15,15,15c8.291,0,15-6.709,15-15
			C512,171.186,490.814,151,466,151z"/>
	</g>
</g>
<g>
</g>
<g>
</g>
<g>
</g>
<g>
</g>
<g>
</g>
<g>
</g>
<g>
</g>
<g>
</g>
<g>
</g>
<g>
</g>
<g>
</g>
<g>
</g>
<g>
</g>
<g>
</g>
<g>
</g>
</svg>
