<?xml version="1.0" encoding="iso-8859-1"?>
<!-- Generator: Adobe Illustrator 19.0.0, SVG Export Plug-In . SVG Version: 6.00 Build 0)  -->
<svg version="1.1" id="Layer_1" xmlns="http://www.w3.org/2000/svg" xmlns:xlink="http://www.w3.org/1999/xlink" x="0px" y="0px"
	 viewBox="0 0 512 512" style="enable-background:new 0 0 512 512;" xml:space="preserve">
<g>
	<g>
		<rect x="64.556" y="110.133" width="189.749" height="132.187"/>
	</g>
</g>
<g>
	<g>
		<path d="M497.053,164.442c-33.382-26.299-84.832-34.029-115.635-36.249c-5.619-0.4-10.548-0.62-14.557-0.74l-3.769-0.11h-11.668
			h-30.713l-36.412-13.46v2.12V238.9l40.981-13.78h26.144h11.318l4.119-0.12c4.009-0.12,8.938-0.34,14.557-0.74
			c30.803-2.22,82.252-9.95,115.635-36.249L512,176.232L497.053,164.442z"/>
	</g>
</g>
<g>
	<g>
		<rect y="126.203" width="34.562" height="100.048"/>
	</g>
</g>
<g>
	<g>
		<rect x="64.556" y="269.68" width="189.749" height="132.187"/>
	</g>
</g>
<g>
	<g>
		<path d="M497.053,323.988c-33.383-26.299-84.832-34.029-115.635-36.249c-5.619-0.4-10.548-0.62-14.557-0.74l-4.119-0.12h-11.318
			h-30.723l-36.402-13.45v125.017l41.011-13.79h26.114h11.667l18.327-0.85c30.803-2.22,82.252-9.95,115.635-36.249L512,335.768
			L497.053,323.988z"/>
	</g>
</g>
<g>
	<g>
		<rect y="285.749" width="34.562" height="100.048"/>
	</g>
</g>
<g>
</g>
<g>
</g>
<g>
</g>
<g>
</g>
<g>
</g>
<g>
</g>
<g>
</g>
<g>
</g>
<g>
</g>
<g>
</g>
<g>
</g>
<g>
</g>
<g>
</g>
<g>
</g>
<g>
</g>
</svg>
