<?xml version="1.0" encoding="iso-8859-1"?>
<!-- Generator: Adobe Illustrator 19.0.0, SVG Export Plug-In . SVG Version: 6.00 Build 0)  -->
<svg version="1.1" id="Capa_1" xmlns="http://www.w3.org/2000/svg" xmlns:xlink="http://www.w3.org/1999/xlink" x="0px" y="0px"
	 viewBox="0 0 448.054 448.054" style="enable-background:new 0 0 448.054 448.054;" xml:space="preserve">
<g>
	<path style="fill:#FFA000;" d="M169.403,83.51c-14.707-31.181-36.399-58.555-63.392-80c-5.839-4.663-14.129-4.663-19.968,0
		C33.41,45.375,2.029,108.407,0.347,175.638c-0.23,8.834,6.745,16.181,15.579,16.411c0.14,0.004,0.281,0.005,0.421,0.005h159.36
		c8.837,0.002,16.002-7.16,16.004-15.996c0-0.119-0.001-0.237-0.004-0.356C190.962,143.728,183.356,112.288,169.403,83.51z"/>
	<path style="fill:#FFA000;" d="M16.027,352.054h160c8.837,0,16,7.163,16,16v64c0,8.837-7.163,16-16,16h-160
		c-8.837,0-16-7.163-16-16v-64C0.027,359.217,7.19,352.054,16.027,352.054z"/>
</g>
<rect x="0.027" y="176.054" style="fill:#FFC107;" width="192" height="208"/>
<g>
	<path style="fill:#FFA000;" d="M425.403,83.51c-14.707-31.181-36.399-58.555-63.392-80c-5.839-4.663-14.129-4.663-19.968,0
		c-52.633,41.865-84.014,104.897-85.696,172.128c-0.23,8.834,6.745,16.181,15.579,16.411c0.14,0.004,0.281,0.005,0.421,0.005h159.36
		c8.837,0.002,16.002-7.16,16.004-15.996c0-0.119-0.001-0.237-0.004-0.356C446.962,143.728,439.356,112.288,425.403,83.51z"/>
	<path style="fill:#FFA000;" d="M272.027,352.054h160c8.837,0,16,7.163,16,16v64c0,8.837-7.163,16-16,16h-160
		c-8.837,0-16-7.163-16-16v-64C256.027,359.217,263.19,352.054,272.027,352.054z"/>
</g>
<rect x="256.027" y="176.054" style="fill:#FFC107;" width="192" height="208"/>
<path d="M176.027,448.054h-160c-8.837,0-16-7.163-16-16v-249.6C-0.115,112.82,31.55,46.934,86.011,3.542
	c5.845-4.68,14.155-4.68,20,0c54.481,43.379,86.16,109.271,86.016,178.912v249.6C192.027,440.891,184.864,448.054,176.027,448.054z
	 M32.027,416.054h128v-233.6c0.126-55.316-23.117-108.113-64-145.376c-40.883,37.263-64.126,90.06-64,145.376V416.054z"/>
<path d="M176.027,384.054h-160c-8.837,0-16-7.163-16-16s7.163-16,16-16h160c8.837,0,16,7.163,16,16S184.864,384.054,176.027,384.054
	z"/>
<path d="M176.027,192.054h-160c-8.837,0-16-7.163-16-16s7.163-16,16-16h160c8.837,0,16,7.163,16,16S184.864,192.054,176.027,192.054
	z"/>
<path d="M432.027,448.054h-160c-8.837,0-16-7.163-16-16v-249.6c-0.152-69.645,31.514-135.545,85.984-178.944
	c5.845-4.68,14.155-4.68,20,0c54.49,43.386,86.17,109.292,86.016,178.944v249.6C448.027,440.891,440.864,448.054,432.027,448.054z
	 M288.027,416.054h128v-233.6c0.135-55.328-23.109-108.138-64-145.408c-40.891,37.27-64.135,90.08-64,145.408V416.054z"/>
<path d="M432.027,384.054h-160c-8.837,0-16-7.163-16-16s7.163-16,16-16h160c8.837,0,16,7.163,16,16S440.864,384.054,432.027,384.054
	z"/>
<path d="M432.027,192.054h-160c-8.837,0-16-7.163-16-16s7.163-16,16-16h160c8.837,0,16,7.163,16,16S440.864,192.054,432.027,192.054
	z"/>
<g>
</g>
<g>
</g>
<g>
</g>
<g>
</g>
<g>
</g>
<g>
</g>
<g>
</g>
<g>
</g>
<g>
</g>
<g>
</g>
<g>
</g>
<g>
</g>
<g>
</g>
<g>
</g>
<g>
</g>
</svg>
