<?xml version="1.0" encoding="iso-8859-1"?>
<!-- Generator: Adobe Illustrator 19.0.0, SVG Export Plug-In . SVG Version: 6.00 Build 0)  -->
<svg version="1.1" id="Capa_1" xmlns="http://www.w3.org/2000/svg" xmlns:xlink="http://www.w3.org/1999/xlink" x="0px" y="0px"
	 viewBox="0 0 432.763 432.763" style="enable-background:new 0 0 432.763 432.763;" xml:space="preserve">
<ellipse style="fill:#C6BF66;" cx="216.541" cy="179.633" rx="24.32" ry="44.24"/>
<path style="fill:#798C49;" d="M216.541,404.273l-66,21.04l-2.48-35.84l40.72-34.56c-10.96-32.88-5.2-81.92-4.96-84l-168,90.16
	v-59.2l74.24-75.84l0,0l0.56-0.64l99.44-101.36c2.96-55.2,12.08-86.32,19.12-102.72l7.36-17.04l7.36,17.04
	c7.12,16,16,47.52,19.12,102.72l139.44,142.4v0.56l0.56,0.4l33.76,34.48v59.2l-168-90.16c0,2.08,5.92,51.36-4.96,84l40.72,34.56
	l-2.48,35.84L216.541,404.273z M216.541,135.473c-13.44,0-24,19.84-24,44.24s10.88,44.24,24,44.24s24-19.84,24-44.24
	s-10.56-44.32-24-44.32V135.473z"/>
<g>
	<path style="fill:#1F2310;" d="M390.701,263.393v-32c0-4.416-3.584-8-8-8s-8,3.584-8,8v15.68l-22.88-23.36v-33.36
		c0-4.416-3.584-8-8-8s-8,3.584-8,8v16.96l-24-24.64v-32c0-4.416-3.584-8-8-8s-8,3.584-8,8v16l-44.96-46
		c-5.36-90.64-27.28-116.8-28.24-117.92c-2.896-3.336-7.952-3.688-11.288-0.792c-0.28,0.248-0.552,0.512-0.792,0.792
		c-0.96,1.12-22.88,27.28-28.24,117.92l-44.72,45.68v-16c0-4.416-3.584-8-8-8s-8,3.584-8,8v32l-22.88,23.36v-15.36
		c0-4.416-3.584-8-8-8s-8,3.584-8,8v32l-24.72,25.28v-16c0-4.416-3.584-8-8-8s-8,3.584-8,8v32l-32,32
		c-1.48,1.488-2.312,3.504-2.32,5.6v59.2c0.008,4.416,3.6,7.992,8.024,7.976c1.304,0,2.584-0.328,3.736-0.936l154.96-83.2
		c-1.736,22.552-0.064,45.232,4.96,67.28l-36.72,31.2c-1.936,1.64-2.976,4.104-2.8,6.64l2.48,35.84c0.32,4.408,4.16,7.72,8.56,7.392
		c0.624-0.048,1.24-0.168,1.84-0.352l63.84-19.6l63.52,20c0.792,0.12,1.608,0.12,2.4,0c4.208,0.008,7.704-3.24,8-7.44l2.48-35.84
		c0.176-2.536-0.864-5-2.8-6.64l-36.72-31.2c5.024-22.048,6.696-44.728,4.96-67.28l154.96,83.84c3.896,2.08,8.744,0.6,10.824-3.304
		c0.616-1.152,0.936-2.432,0.936-3.736v-59.2c-0.008-2.096-0.84-4.112-2.32-5.6L390.701,263.393z M409.101,347.713l-156.16-83.84
		c-3.88-2.112-8.736-0.672-10.848,3.208c-0.792,1.464-1.112,3.136-0.912,4.792c0,0.48,5.84,49.2-4.56,80.48
		c-1.04,3.096-0.088,6.52,2.4,8.64l37.68,32l-1.52,21.6l-50.72-16v-20.08c0-4.416-3.584-8-8-8s-8,3.584-8,8v19.92l-50.72,16
		l-1.36-21.76l37.68-32c2.488-2.12,3.44-5.544,2.4-8.64c-10.4-31.2-4.64-80-4.56-80.48c0.536-4.384-2.584-8.376-6.968-8.912
		c-1.656-0.2-3.328,0.12-4.792,0.912l-156.16,84.16v-42.56l72-73.2c0.448-0.384,0.848-0.808,1.2-1.28l37.92-38.72l0.8-0.8
		l60.24-61.52c1.352-1.4,2.152-3.248,2.24-5.2c2.64-55.44,11.92-85.52,18.16-99.76c6.24,14.48,15.52,44.56,18.48,100
		c0.088,1.952,0.888,3.8,2.24,5.2l60.72,62l0,0l78.24,80c0.528,0.744,1.176,1.392,1.92,1.92l30.96,32V347.713z"/>
	<path style="fill:#1F2310;" d="M216.541,127.393c-18.08,0-32,22.96-32,52.24s14.16,52.24,32,52.24s32-22.96,32-52.24
		S234.621,127.393,216.541,127.393z M216.541,215.873c-7.52,0-16-16-16-36.24s8.8-36.24,16-36.24c7.2,0,16,16,16,36.24
		S224.061,215.873,216.541,215.873z"/>
</g>
<g>
</g>
<g>
</g>
<g>
</g>
<g>
</g>
<g>
</g>
<g>
</g>
<g>
</g>
<g>
</g>
<g>
</g>
<g>
</g>
<g>
</g>
<g>
</g>
<g>
</g>
<g>
</g>
<g>
</g>
</svg>
